<svg width="256" height="208" viewBox="0 0 256 208" fill="none" xmlns="http://www.w3.org/2000/svg">
    <g clip-path="url(#clip0_59_1077)">
    <path d="M46.1254 136.777C45.9004 136.777 45.6767 136.742 45.4625 136.673C45.1914 136.587 44.94 136.448 44.7228 136.265C44.5056 136.081 44.327 135.856 44.1973 135.602L42.1059 131.54C41.8435 131.029 41.7942 130.434 41.969 129.887C42.1437 129.339 42.5281 128.884 43.0379 128.62L76.8467 111.162C77.3571 110.899 77.9507 110.85 78.4974 111.025C79.044 111.2 79.499 111.585 79.7625 112.096L81.8539 116.158C82.1163 116.669 82.1655 117.264 81.9908 117.811C81.8161 118.359 81.4316 118.814 80.9218 119.078L47.1131 136.536C46.8079 136.694 46.4692 136.777 46.1254 136.777Z" fill="#4B93E7"/>
    <path d="M58.3894 120.949C58.48 121.074 58.557 121.209 58.6192 121.35L62.1918 129.164C62.3069 129.424 62.3697 129.705 62.3765 129.99C62.3833 130.274 62.334 130.558 62.2313 130.823C62.1287 131.089 61.9748 131.332 61.7785 131.538C61.5821 131.744 61.3471 131.909 61.0869 132.024L49.0711 136.231C47.8214 136.668 46.455 136.63 45.231 136.125C44.0071 135.621 43.0105 134.684 42.4302 133.492C41.8228 132.245 41.717 130.813 42.1344 129.49C42.5518 128.167 43.4607 127.055 44.6732 126.384L55.7527 120.249C56.2059 120.046 56.7149 120.004 57.1948 120.132C57.6748 120.259 58.0965 120.548 58.3894 120.949Z" fill="#082777"/>
    <path d="M199.878 100.495H141.995C140.678 100.491 139.406 100.01 138.415 99.1408L114.574 78.0813C113.755 77.3572 112.701 76.958 111.609 76.9586H91.0334V5.88479C91.035 4.53003 91.573 3.2312 92.5295 2.27324C93.486 1.31529 94.7828 0.776433 96.1355 0.774902H194.775C196.128 0.776433 197.425 1.31529 198.381 2.27324C199.338 3.2312 199.876 4.53003 199.878 5.88479L199.878 100.495Z" fill="white"/>
    <path d="M114.689 33.7569C120.666 33.7569 125.511 28.9041 125.511 22.9178C125.511 16.9315 120.666 12.0786 114.689 12.0786C108.711 12.0786 103.866 16.9315 103.866 22.9178C103.866 28.9041 108.711 33.7569 114.689 33.7569Z" fill="#EBEBEB"/>
    <path d="M156.742 17.1111H136.643C136.274 17.1111 135.92 17.2579 135.659 17.5193C135.398 17.7806 135.251 18.1351 135.251 18.5047C135.251 18.8743 135.398 19.2288 135.659 19.4901C135.92 19.7515 136.274 19.8983 136.643 19.8983H156.742C157.111 19.8983 157.465 19.7515 157.726 19.4901C157.987 19.2288 158.133 18.8743 158.133 18.5047C158.133 18.1351 157.987 17.7806 157.726 17.5193C157.465 17.2579 157.111 17.1111 156.742 17.1111Z" fill="#EBEBEB"/>
    <path d="M185.919 25.9373H136.377C135.755 25.9373 135.251 26.5628 135.251 27.3309C135.251 28.0989 135.755 28.7245 136.377 28.7245H185.919C186.541 28.7245 187.045 28.0989 187.045 27.3309C187.045 26.5628 186.541 25.9373 185.919 25.9373Z" fill="#EBEBEB"/>
    <path d="M182.027 44.5959H108.885C108.291 44.5959 107.808 45.2215 107.808 45.9896C107.808 46.7576 108.291 47.3832 108.885 47.3832H182.027C182.62 47.3832 183.103 46.7576 183.103 45.9896C183.103 45.2215 182.62 44.5959 182.027 44.5959Z" fill="#EBEBEB"/>
    <path d="M182.027 53.2673H108.885C108.291 53.2673 107.808 53.8929 107.808 54.6609C107.808 55.429 108.291 56.0545 108.885 56.0545H182.027C182.62 56.0545 183.103 55.429 183.103 54.6609C183.103 53.8929 182.62 53.2673 182.027 53.2673Z" fill="#EBEBEB"/>
    <path d="M182.027 61.9387H108.885C108.291 61.9387 107.808 62.5643 107.808 63.3323C107.808 64.1004 108.291 64.7259 108.885 64.7259H182.027C182.62 64.7259 183.103 64.1004 183.103 63.3323C183.103 62.5643 182.62 61.9387 182.027 61.9387Z" fill="#EBEBEB"/>
    <path d="M182.027 70.6101H108.885C108.291 70.6101 107.808 71.2357 107.808 72.0037C107.808 72.7717 108.291 73.3973 108.885 73.3973H182.027C182.62 73.3973 183.103 72.7717 183.103 72.0037C183.103 71.2357 182.62 70.6101 182.027 70.6101Z" fill="#EBEBEB"/>
    <path d="M247.806 100.495H141.995C140.942 100.497 139.911 100.189 139.032 99.6086L138.962 99.5627V27.2534C138.963 25.8987 139.501 24.5999 140.458 23.6419C141.414 22.6839 142.711 22.1451 144.064 22.1436H242.704C244.057 22.1451 245.353 22.6839 246.31 23.6419C247.266 24.5999 247.804 25.8987 247.806 27.2534L247.806 100.495Z" fill="#4B93E7"/>
    <path d="M162.617 55.1256C168.594 55.1256 173.44 50.2727 173.44 44.2864C173.44 38.3001 168.594 33.4473 162.617 33.4473C156.64 33.4473 151.794 38.3001 151.794 44.2864C151.794 50.2727 156.64 55.1256 162.617 55.1256Z" fill="#EBEBEB"/>
    <path d="M204.67 38.4797H184.571C184.202 38.4797 183.848 38.6266 183.587 38.8879C183.327 39.1493 183.18 39.5037 183.18 39.8733C183.18 40.2429 183.327 40.5974 183.587 40.8588C183.848 41.1201 184.202 41.2669 184.571 41.2669H204.67C205.039 41.2669 205.393 41.1201 205.654 40.8588C205.915 40.5974 206.062 40.2429 206.062 39.8733C206.062 39.5037 205.915 39.1493 205.654 38.8879C205.393 38.6266 205.039 38.4797 204.67 38.4797Z" fill="#EBEBEB"/>
    <path d="M233.848 47.3059H184.305C183.684 47.3059 183.18 47.9315 183.18 48.6995C183.18 49.4675 183.684 50.0931 184.305 50.0931H233.848C234.47 50.0931 234.974 49.4675 234.974 48.6995C234.974 47.9315 234.47 47.3059 233.848 47.3059Z" fill="#EBEBEB"/>
    <path d="M229.955 65.9646H156.813C156.219 65.9646 155.737 66.5902 155.737 67.3582C155.737 68.1262 156.219 68.7518 156.813 68.7518H229.955C230.549 68.7518 231.031 68.1262 231.031 67.3582C231.031 66.5902 230.549 65.9646 229.955 65.9646Z" fill="#EBEBEB"/>
    <path d="M229.955 74.636H156.813C156.219 74.636 155.737 75.2616 155.737 76.0296C155.737 76.7976 156.219 77.4232 156.813 77.4232H229.955C230.549 77.4232 231.031 76.7976 231.031 76.0296C231.031 75.2616 230.549 74.636 229.955 74.636Z" fill="#EBEBEB"/>
    <path d="M229.955 83.3074H156.813C156.219 83.3074 155.737 83.9329 155.737 84.701C155.737 85.469 156.219 86.0946 156.813 86.0946H229.955C230.549 86.0946 231.031 85.469 231.031 84.701C231.031 83.9329 230.549 83.3074 229.955 83.3074Z" fill="#EBEBEB"/>
    <path d="M229.955 91.9785H156.813C156.219 91.9785 155.737 92.6041 155.737 93.3721C155.737 94.1402 156.219 94.7657 156.813 94.7657H229.955C230.549 94.7657 231.031 94.1402 231.031 93.3721C231.031 92.6041 230.549 91.9785 229.955 91.9785Z" fill="#EBEBEB"/>
    <path d="M250.744 99.7208H141.995C140.95 99.722 139.935 99.3683 139.117 98.7174C139.052 98.6678 138.99 98.6152 138.928 98.5594L129.723 90.4301L115.084 77.5005C114.125 76.652 112.889 76.1839 111.609 76.1843H85.0037C83.6102 76.1863 82.2743 76.7416 81.2889 77.7285C80.3035 78.7154 79.749 80.0534 79.7471 81.4491V201.918C79.749 203.314 80.3035 204.652 81.2889 205.639C82.2743 206.626 83.6102 207.181 85.0037 207.183H250.744C252.137 207.181 253.473 206.626 254.458 205.639C255.444 204.652 255.998 203.314 256 201.918V104.985C255.998 103.59 255.444 102.252 254.458 101.265C253.473 100.278 252.137 99.7227 250.744 99.7208ZM255.382 201.918C255.38 203.15 254.891 204.331 254.022 205.202C253.152 206.072 251.973 206.562 250.744 206.564H85.0037C83.7741 206.562 82.5952 206.072 81.7257 205.202C80.8561 204.331 80.367 203.15 80.3655 201.918V81.4491C80.367 80.2175 80.8561 79.0368 81.7257 78.166C82.5952 77.2951 83.7741 76.8052 85.0037 76.8037H111.609C112.738 76.8028 113.829 77.2159 114.676 77.965L128.789 90.4301L138.517 99.024C139.48 99.8689 140.715 100.336 141.995 100.34H250.744C251.973 100.342 253.152 100.832 254.022 101.702C254.891 102.573 255.38 103.754 255.382 104.985V201.918Z" fill="#4B93E7"/>
    <path d="M31.928 118.331C41.0678 118.331 48.477 110.91 48.477 101.756C48.477 92.6025 41.0678 85.1819 31.928 85.1819C22.7883 85.1819 15.379 92.6025 15.379 101.756C15.379 110.91 22.7883 118.331 31.928 118.331Z" fill="#4B93E7"/>
    <path d="M31.7941 207.003H27.2303C26.6564 207.002 26.1063 206.774 25.7005 206.367C25.2947 205.961 25.0664 205.41 25.0658 204.835V166.739C25.0664 166.164 25.2947 165.613 25.7005 165.207C26.1063 164.801 26.6564 164.572 27.2303 164.571H31.7941C32.368 164.572 32.9182 164.801 33.324 165.207C33.7297 165.613 33.958 166.164 33.9586 166.739V204.835C33.958 205.41 33.7297 205.961 33.324 206.367C32.9182 206.774 32.368 207.002 31.7941 207.003Z" fill="#4B93E7"/>
    <path d="M41.689 207.003H37.1252C36.5513 207.002 36.0012 206.774 35.5954 206.367C35.1896 205.961 34.9613 205.41 34.9607 204.835V166.739C34.9613 166.164 35.1896 165.613 35.5954 165.207C36.0012 164.801 36.5513 164.572 37.1252 164.571H41.689C42.2629 164.572 42.8131 164.801 43.2189 165.207C43.6246 165.613 43.8529 166.164 43.8535 166.739V204.835C43.8529 205.41 43.6246 205.961 43.2189 206.367C42.8131 206.774 42.2629 207.002 41.689 207.003Z" fill="#4B93E7"/>
    <path d="M58.2619 158.305C58.2619 171.817 45.5713 176.175 32.08 176.175C18.5888 176.175 9.40576 171.817 9.40576 158.305C9.40576 144.793 18.4873 121.761 31.9785 121.761C45.4698 121.761 58.2619 144.793 58.2619 158.305Z" fill="#082777"/>
    <path d="M31.5803 107.899L31.5631 107.28C32.7136 107.248 33.7279 107.175 34.4901 106.618C34.7062 106.451 34.8838 106.239 35.0108 105.997C35.1379 105.755 35.2114 105.488 35.2264 105.215C35.2398 105.049 35.2146 104.881 35.1528 104.725C35.091 104.57 34.9942 104.431 34.87 104.319C34.364 103.891 33.5499 104.03 32.9565 104.302L32.4449 104.537L33.4261 97.3552L34.0388 97.4393L33.2042 103.548C34.0104 103.311 34.7575 103.413 35.2692 103.846C35.4656 104.018 35.6198 104.233 35.7196 104.474C35.8194 104.715 35.8621 104.977 35.8444 105.237C35.8264 105.604 35.7284 105.962 35.5575 106.287C35.3866 106.612 35.1467 106.896 34.8549 107.118C33.8756 107.835 32.6029 107.87 31.5803 107.899Z" fill="#082777"/>
    <path d="M40.3996 97.9661H37.0688V98.5854H40.3996V97.9661Z" fill="#082777"/>
    <path d="M29.8863 97.9661H26.5555V98.5854H29.8863V97.9661Z" fill="#082777"/>
    <path d="M215.802 185.815H124.893C123.663 185.813 122.484 185.323 121.614 184.453C120.745 183.582 120.256 182.401 120.254 181.169V131C120.256 129.768 120.745 128.587 121.614 127.716C122.484 126.846 123.663 126.356 124.893 126.354H215.802C217.032 126.356 218.211 126.846 219.08 127.716C219.95 128.587 220.439 129.768 220.44 131V181.169C220.439 182.401 219.95 183.582 219.08 184.453C218.211 185.323 217.032 185.813 215.802 185.815ZM124.893 126.974C123.827 126.975 122.805 127.399 122.052 128.154C121.298 128.909 120.874 129.932 120.873 131V181.169C120.874 182.237 121.298 183.26 122.052 184.015C122.805 184.77 123.827 185.194 124.893 185.195H215.802C216.868 185.194 217.89 184.77 218.643 184.015C219.397 183.26 219.821 182.237 219.822 181.169V131C219.821 129.932 219.397 128.909 218.643 128.154C217.89 127.399 216.868 126.975 215.802 126.974H124.893Z" fill="white"/>
    <path d="M139.58 155.775C145.558 155.775 150.403 150.922 150.403 144.936C150.403 138.949 145.558 134.096 139.58 134.096C133.603 134.096 128.758 138.949 128.758 144.936C128.758 150.922 133.603 155.775 139.58 155.775Z" fill="white"/>
    <path d="M181.634 139.129H161.535C161.166 139.129 160.812 139.276 160.551 139.537C160.29 139.798 160.143 140.153 160.143 140.523C160.143 140.892 160.29 141.247 160.551 141.508C160.812 141.769 161.166 141.916 161.535 141.916H181.634C182.003 141.916 182.357 141.769 182.618 141.508C182.879 141.247 183.025 140.892 183.025 140.523C183.025 140.153 182.879 139.798 182.618 139.537C182.357 139.276 182.003 139.129 181.634 139.129Z" fill="white"/>
    <path d="M210.811 147.955H161.269C160.647 147.955 160.143 148.581 160.143 149.349C160.143 150.117 160.647 150.742 161.269 150.742H210.811C211.433 150.742 211.937 150.117 211.937 149.349C211.937 148.581 211.433 147.955 210.811 147.955Z" fill="white"/>
    <path d="M206.918 166.614H133.776C133.183 166.614 132.7 167.24 132.7 168.008C132.7 168.776 133.183 169.401 133.776 169.401H206.918C207.512 169.401 207.994 168.776 207.994 168.008C207.994 167.24 207.512 166.614 206.918 166.614Z" fill="white"/>
    <path d="M206.918 175.285H133.776C133.183 175.285 132.7 175.911 132.7 176.679C132.7 177.447 133.183 178.072 133.776 178.072H206.918C207.512 178.072 207.994 177.447 207.994 176.679C207.994 175.911 207.512 175.285 206.918 175.285Z" fill="white"/>
    <path d="M18.7205 97.2023C20.0076 95.2619 22.2722 94.4394 24.5055 94.2393C27.0191 94.0141 29.448 94.4995 31.9022 94.9712C34.6031 95.4903 37.4617 95.9759 40.1832 95.3197C41.3872 95.0407 42.5122 94.4917 43.4735 93.714C44.4347 92.9362 45.2072 91.95 45.7325 90.8298C46.729 88.6442 46.9437 86.1817 46.3405 83.8562C45.7028 81.3829 44.1197 79.2067 42.2007 77.563C38.2839 74.2081 32.9836 72.7004 27.8856 72.8424C22.8068 72.9737 17.8981 74.7023 13.855 77.7834C9.80513 80.9756 6.95526 85.4485 5.77057 90.4719C4.53176 95.454 4.93532 100.704 6.92096 105.437C8.03656 108.029 9.65001 110.366 10.895 112.893C12.0542 115.245 12.9469 117.98 12.2257 120.604C11.5928 122.907 9.73469 124.952 7.40202 125.577C5.18027 126.173 2.98653 125.197 1.76915 123.274C0.603065 121.433 0.575165 119.02 2.32598 117.534C2.76742 117.152 3.28163 116.865 3.83736 116.689C4.39309 116.514 4.97872 116.453 5.55864 116.511C6.13856 116.569 6.70065 116.744 7.21073 117.027C7.72081 117.309 8.16823 117.692 8.52577 118.153C9.23607 119.077 9.55401 120.244 9.41065 121.402C9.3244 121.986 10.2181 122.239 10.3052 121.649C10.5141 120.425 10.2824 119.166 9.6514 118.098C9.02039 117.029 8.03102 116.219 6.85958 115.813C5.68814 115.407 4.41071 115.43 3.25491 115.879C2.0991 116.328 1.13998 117.173 0.548439 118.264C-0.507395 120.253 0.0622872 122.651 1.40257 124.35C2.09409 125.255 3.03137 125.942 4.10227 126.328C5.17317 126.713 6.33234 126.782 7.4411 126.525C9.88079 125.961 11.8766 124.019 12.8151 121.737C13.86 119.196 13.3813 116.361 12.3627 113.895C11.2616 111.23 9.62649 108.84 8.33342 106.272C7.16259 103.951 6.41754 101.439 6.13376 98.8542C5.5658 93.664 6.74197 88.4324 9.4762 83.9868C12.2631 79.6103 16.5168 76.3725 21.4733 74.855C26.3606 73.3185 31.7508 73.3656 36.536 75.2539C41.2496 77.1139 45.8012 81.1676 45.7465 86.6119C45.7232 88.9375 44.8612 91.3092 43.0826 92.8603C40.957 94.7141 37.9973 94.8726 35.3253 94.5833C32.6363 94.2921 30.0251 93.5056 27.3245 93.305C24.9755 93.1305 22.4414 93.3119 20.3441 94.4807C19.3673 95.0262 18.5358 95.7988 17.9195 96.7333C17.5882 97.2328 18.3913 97.6986 18.7205 97.2023Z" fill="#082777"/>
    <path d="M13.9531 174.885C13.8437 174.885 13.7344 174.876 13.6262 174.86L9.11435 174.172C8.54712 174.085 8.03755 173.776 7.69745 173.313C7.35735 172.85 7.21448 172.271 7.3002 171.703L13.0239 134.041C13.1109 133.472 13.4194 132.962 13.8816 132.621C14.3438 132.281 14.922 132.138 15.4895 132.224L20.0013 132.911C20.5686 132.999 21.0782 133.307 21.4183 133.77C21.7584 134.233 21.9012 134.812 21.8155 135.381L16.0917 173.043C16.0132 173.555 15.7545 174.022 15.3623 174.36C14.9701 174.698 14.4703 174.884 13.9531 174.885Z" fill="#4B93E7"/>
    <path d="M19.3448 149.217C19.1905 149.217 19.0367 149.201 18.8859 149.168L10.4736 147.473C10.1955 147.413 9.93192 147.299 9.69784 147.137C9.46376 146.975 9.26383 146.769 9.10946 146.53C8.95509 146.29 8.84932 146.023 8.79819 145.743C8.74707 145.463 8.75159 145.175 8.8115 144.896L12.4725 132.687C12.8537 131.417 13.6867 130.332 14.8136 129.637C15.9405 128.941 17.283 128.684 18.5866 128.914C19.9509 129.154 21.1709 129.91 21.9944 131.026C22.818 132.141 23.1823 133.531 23.0119 134.908L21.4599 147.492C21.3579 147.978 21.0922 148.415 20.7072 148.729C20.3222 149.043 19.8413 149.216 19.3448 149.217Z" fill="#082777"/>
    <path d="M59.3254 207.183H10.7785C10.6964 207.183 10.6178 207.151 10.5598 207.093C10.5018 207.035 10.4692 206.956 10.4692 206.874C10.4692 206.792 10.5018 206.713 10.5598 206.655C10.6178 206.597 10.6964 206.564 10.7785 206.564H59.3254C59.4074 206.564 59.4861 206.597 59.544 206.655C59.602 206.713 59.6346 206.792 59.6346 206.874C59.6346 206.956 59.602 207.035 59.544 207.093C59.4861 207.151 59.4074 207.183 59.3254 207.183Z" fill="#4E4E4E"/>
    <path d="M26.1364 109.34C28.3702 113.026 34.4463 118.186 40.8798 109.34" stroke="#082777"/>
    </g>
    <defs>
    <clipPath id="clip0_59_1077">
    <rect width="256" height="206.408" fill="white" transform="translate(0.000244141 0.774902)"/>
    </clipPath>
    </defs>
    </svg>
    