<svg width="878" height="306" viewBox="0 0 878 306" fill="none" xmlns="http://www.w3.org/2000/svg">
    <g filter="url(#filter0_d_107_2351)">
    <path d="M66.8 40.2V110H52.8V80.3H22.9V110H8.9V40.2H22.9V68.9H52.8V40.2H66.8ZM116.58 110L101.18 82.8H94.5797V110H80.5797V40.2H106.78C112.18 40.2 116.78 41.1667 120.58 43.1C124.38 44.9667 127.213 47.5333 129.08 50.8C131.013 54 131.98 57.6 131.98 61.6C131.98 66.2 130.646 70.3667 127.98 74.1C125.313 77.7667 121.346 80.3 116.08 81.7L132.78 110H116.58ZM94.5797 72.3H106.28C110.08 72.3 112.913 71.4 114.78 69.6C116.646 67.7333 117.58 65.1667 117.58 61.9C117.58 58.7 116.646 56.2333 114.78 54.5C112.913 52.7 110.08 51.8 106.28 51.8H94.5797V72.3ZM244.57 40.2V110H230.57V64.6L211.87 110H201.27L182.47 64.6V110H168.47V40.2H184.37L206.57 92.1L228.77 40.2H244.57ZM254.812 82.1C254.812 76.5 255.912 71.5333 258.112 67.2C260.378 62.8667 263.412 59.5333 267.212 57.2C271.078 54.8667 275.378 53.7 280.112 53.7C284.245 53.7 287.845 54.5333 290.912 56.2C294.045 57.8667 296.545 59.9667 298.412 62.5V54.6H312.512V110H298.412V101.9C296.612 104.5 294.112 106.667 290.912 108.4C287.778 110.067 284.145 110.9 280.012 110.9C275.345 110.9 271.078 109.7 267.212 107.3C263.412 104.9 260.378 101.533 258.112 97.2C255.912 92.8 254.812 87.7667 254.812 82.1ZM298.412 82.3C298.412 78.9 297.745 76 296.412 73.6C295.078 71.1333 293.278 69.2667 291.012 68C288.745 66.6667 286.312 66 283.712 66C281.112 66 278.712 66.6333 276.512 67.9C274.312 69.1667 272.512 71.0333 271.112 73.5C269.778 75.9 269.112 78.7667 269.112 82.1C269.112 85.4333 269.778 88.3667 271.112 90.9C272.512 93.3667 274.312 95.2667 276.512 96.6C278.778 97.9333 281.178 98.6 283.712 98.6C286.312 98.6 288.745 97.9667 291.012 96.7C293.278 95.3667 295.078 93.5 296.412 91.1C297.745 88.6333 298.412 85.7 298.412 82.3ZM356.885 53.8C363.485 53.8 368.818 55.9 372.885 60.1C376.952 64.2333 378.985 70.0333 378.985 77.5V110H364.985V79.4C364.985 75 363.885 71.6333 361.685 69.3C359.485 66.9 356.485 65.7 352.685 65.7C348.818 65.7 345.752 66.9 343.485 69.3C341.285 71.6333 340.185 75 340.185 79.4V110H326.185V54.6H340.185V61.5C342.052 59.1 344.418 57.2333 347.285 55.9C350.218 54.5 353.418 53.8 356.885 53.8ZM388.698 82.1C388.698 76.5 389.798 71.5333 391.998 67.2C394.265 62.8667 397.298 59.5333 401.098 57.2C404.965 54.8667 409.265 53.7 413.998 53.7C418.132 53.7 421.732 54.5333 424.798 56.2C427.932 57.8667 430.432 59.9667 432.298 62.5V54.6H446.398V110H432.298V101.9C430.498 104.5 427.998 106.667 424.798 108.4C421.665 110.067 418.032 110.9 413.898 110.9C409.232 110.9 404.965 109.7 401.098 107.3C397.298 104.9 394.265 101.533 391.998 97.2C389.798 92.8 388.698 87.7667 388.698 82.1ZM432.298 82.3C432.298 78.9 431.632 76 430.298 73.6C428.965 71.1333 427.165 69.2667 424.898 68C422.632 66.6667 420.198 66 417.598 66C414.998 66 412.598 66.6333 410.398 67.9C408.198 69.1667 406.398 71.0333 404.998 73.5C403.665 75.9 402.998 78.7667 402.998 82.1C402.998 85.4333 403.665 88.3667 404.998 90.9C406.398 93.3667 408.198 95.2667 410.398 96.6C412.665 97.9333 415.065 98.6 417.598 98.6C420.198 98.6 422.632 97.9667 424.898 96.7C427.165 95.3667 428.965 93.5 430.298 91.1C431.632 88.6333 432.298 85.7 432.298 82.3ZM481.772 53.7C485.905 53.7 489.539 54.5333 492.672 56.2C495.805 57.8 498.272 59.9 500.072 62.5V54.6H514.172V110.4C514.172 115.533 513.139 120.1 511.072 124.1C509.005 128.167 505.905 131.367 501.772 133.7C497.639 136.1 492.639 137.3 486.772 137.3C478.905 137.3 472.439 135.467 467.372 131.8C462.372 128.133 459.539 123.133 458.872 116.8H472.772C473.505 119.333 475.072 121.333 477.472 122.8C479.939 124.333 482.905 125.1 486.372 125.1C490.439 125.1 493.739 123.867 496.272 121.4C498.805 119 500.072 115.333 500.072 110.4V101.8C498.272 104.4 495.772 106.567 492.572 108.3C489.439 110.033 485.839 110.9 481.772 110.9C477.105 110.9 472.839 109.7 468.972 107.3C465.105 104.9 462.039 101.533 459.772 97.2C457.572 92.8 456.472 87.7667 456.472 82.1C456.472 76.5 457.572 71.5333 459.772 67.2C462.039 62.8667 465.072 59.5333 468.872 57.2C472.739 54.8667 477.039 53.7 481.772 53.7ZM500.072 82.3C500.072 78.9 499.405 76 498.072 73.6C496.739 71.1333 494.939 69.2667 492.672 68C490.405 66.6667 487.972 66 485.372 66C482.772 66 480.372 66.6333 478.172 67.9C475.972 69.1667 474.172 71.0333 472.772 73.5C471.439 75.9 470.772 78.7667 470.772 82.1C470.772 85.4333 471.439 88.3667 472.772 90.9C474.172 93.3667 475.972 95.2667 478.172 96.6C480.439 97.9333 482.839 98.6 485.372 98.6C487.972 98.6 490.405 97.9667 492.672 96.7C494.939 95.3667 496.739 93.5 498.072 91.1C499.405 88.6333 500.072 85.7 500.072 82.3ZM579.345 81.1C579.345 83.1 579.212 84.9 578.945 86.5H538.445C538.779 90.5 540.179 93.6333 542.645 95.9C545.112 98.1667 548.145 99.3 551.745 99.3C556.945 99.3 560.645 97.0667 562.845 92.6H577.945C576.345 97.9333 573.279 102.333 568.745 105.8C564.212 109.2 558.645 110.9 552.045 110.9C546.712 110.9 541.912 109.733 537.645 107.4C533.445 105 530.145 101.633 527.745 97.3C525.412 92.9667 524.245 87.9667 524.245 82.3C524.245 76.5667 525.412 71.5333 527.745 67.2C530.079 62.8667 533.345 59.5333 537.545 57.2C541.745 54.8667 546.579 53.7 552.045 53.7C557.312 53.7 562.012 54.8333 566.145 57.1C570.345 59.3667 573.579 62.6 575.845 66.8C578.179 70.9333 579.345 75.7 579.345 81.1ZM564.845 77.1C564.779 73.5 563.479 70.6333 560.945 68.5C558.412 66.3 555.312 65.2 551.645 65.2C548.179 65.2 545.245 66.2667 542.845 68.4C540.512 70.4667 539.079 73.3667 538.545 77.1H564.845ZM658.364 53.8C665.164 53.8 670.631 55.9 674.764 60.1C678.964 64.2333 681.064 70.0333 681.064 77.5V110H667.064V79.4C667.064 75.0667 665.964 71.7667 663.764 69.5C661.564 67.1667 658.564 66 654.764 66C650.964 66 647.931 67.1667 645.664 69.5C643.464 71.7667 642.364 75.0667 642.364 79.4V110H628.364V79.4C628.364 75.0667 627.264 71.7667 625.064 69.5C622.864 67.1667 619.864 66 616.064 66C612.197 66 609.131 67.1667 606.864 69.5C604.664 71.7667 603.564 75.0667 603.564 79.4V110H589.564V54.6H603.564V61.3C605.364 58.9667 607.664 57.1333 610.464 55.8C613.331 54.4667 616.464 53.8 619.864 53.8C624.197 53.8 628.064 54.7333 631.464 56.6C634.864 58.4 637.497 61 639.364 64.4C641.164 61.2 643.764 58.6333 647.164 56.7C650.631 54.7667 654.364 53.8 658.364 53.8ZM745.849 81.1C745.849 83.1 745.716 84.9 745.449 86.5H704.949C705.283 90.5 706.683 93.6333 709.149 95.9C711.616 98.1667 714.649 99.3 718.249 99.3C723.449 99.3 727.149 97.0667 729.349 92.6H744.449C742.849 97.9333 739.783 102.333 735.249 105.8C730.716 109.2 725.149 110.9 718.549 110.9C713.216 110.9 708.416 109.733 704.149 107.4C699.949 105 696.649 101.633 694.249 97.3C691.916 92.9667 690.749 87.9667 690.749 82.3C690.749 76.5667 691.916 71.5333 694.249 67.2C696.583 62.8667 699.849 59.5333 704.049 57.2C708.249 54.8667 713.083 53.7 718.549 53.7C723.816 53.7 728.516 54.8333 732.649 57.1C736.849 59.3667 740.083 62.6 742.349 66.8C744.683 70.9333 745.849 75.7 745.849 81.1ZM731.349 77.1C731.283 73.5 729.983 70.6333 727.449 68.5C724.916 66.3 721.816 65.2 718.149 65.2C714.683 65.2 711.749 66.2667 709.349 68.4C707.016 70.4667 705.583 73.3667 705.049 77.1H731.349ZM786.768 53.8C793.368 53.8 798.701 55.9 802.768 60.1C806.835 64.2333 808.868 70.0333 808.868 77.5V110H794.868V79.4C794.868 75 793.768 71.6333 791.568 69.3C789.368 66.9 786.368 65.7 782.568 65.7C778.701 65.7 775.635 66.9 773.368 69.3C771.168 71.6333 770.068 75 770.068 79.4V110H756.068V54.6H770.068V61.5C771.935 59.1 774.301 57.2333 777.168 55.9C780.101 54.5 783.301 53.8 786.768 53.8ZM838.481 66.1V92.9C838.481 94.7667 838.915 96.1333 839.781 97C840.715 97.8 842.248 98.2 844.381 98.2H850.881V110H842.081C830.281 110 824.381 104.267 824.381 92.8V66.1H817.781V54.6H824.381V40.9H838.481V54.6H850.881V66.1H838.481Z" fill="#4B93E7"/>
    <path d="M51.7 246.7H23.9L19.3 260H4.6L29.7 190.1H46L71.1 260H56.3L51.7 246.7ZM47.9 235.5L37.8 206.3L27.7 235.5H47.9ZM94.482 186V260H80.482V186H94.482ZM115.414 198C112.947 198 110.881 197.233 109.214 195.7C107.614 194.1 106.814 192.133 106.814 189.8C106.814 187.467 107.614 185.533 109.214 184C110.881 182.4 112.947 181.6 115.414 181.6C117.881 181.6 119.914 182.4 121.514 184C123.181 185.533 124.014 187.467 124.014 189.8C124.014 192.133 123.181 194.1 121.514 195.7C119.914 197.233 117.881 198 115.414 198ZM122.314 204.6V260H108.314V204.6H122.314ZM157.846 203.7C161.979 203.7 165.613 204.533 168.746 206.2C171.879 207.8 174.346 209.9 176.146 212.5V204.6H190.246V260.4C190.246 265.533 189.213 270.1 187.146 274.1C185.079 278.167 181.979 281.367 177.846 283.7C173.713 286.1 168.713 287.3 162.846 287.3C154.979 287.3 148.513 285.467 143.446 281.8C138.446 278.133 135.613 273.133 134.946 266.8H148.846C149.579 269.333 151.146 271.333 153.546 272.8C156.013 274.333 158.979 275.1 162.446 275.1C166.513 275.1 169.813 273.867 172.346 271.4C174.879 269 176.146 265.333 176.146 260.4V251.8C174.346 254.4 171.846 256.567 168.646 258.3C165.513 260.033 161.913 260.9 157.846 260.9C153.179 260.9 148.913 259.7 145.046 257.3C141.179 254.9 138.113 251.533 135.846 247.2C133.646 242.8 132.546 237.767 132.546 232.1C132.546 226.5 133.646 221.533 135.846 217.2C138.113 212.867 141.146 209.533 144.946 207.2C148.813 204.867 153.113 203.7 157.846 203.7ZM176.146 232.3C176.146 228.9 175.479 226 174.146 223.6C172.813 221.133 171.013 219.267 168.746 218C166.479 216.667 164.046 216 161.446 216C158.846 216 156.446 216.633 154.246 217.9C152.046 219.167 150.246 221.033 148.846 223.5C147.513 225.9 146.846 228.767 146.846 232.1C146.846 235.433 147.513 238.367 148.846 240.9C150.246 243.367 152.046 245.267 154.246 246.6C156.513 247.933 158.913 248.6 161.446 248.6C164.046 248.6 166.479 247.967 168.746 246.7C171.013 245.367 172.813 243.5 174.146 241.1C175.479 238.633 176.146 235.7 176.146 232.3ZM235.12 203.8C239.32 203.8 243.053 204.733 246.32 206.6C249.586 208.4 252.12 211.1 253.92 214.7C255.786 218.233 256.72 222.5 256.72 227.5V260H242.72V229.4C242.72 225 241.62 221.633 239.42 219.3C237.22 216.9 234.22 215.7 230.42 215.7C226.553 215.7 223.486 216.9 221.22 219.3C219.02 221.633 217.92 225 217.92 229.4V260H203.92V186H217.92V211.5C219.72 209.1 222.12 207.233 225.12 205.9C228.12 204.5 231.453 203.8 235.12 203.8ZM286.333 216.1V242.9C286.333 244.767 286.766 246.133 287.633 247C288.566 247.8 290.099 248.2 292.233 248.2H298.733V260H289.933C278.133 260 272.233 254.267 272.233 242.8V216.1H265.633V204.6H272.233V190.9H286.333V204.6H298.733V216.1H286.333ZM390.53 190.2V260H376.53V230.3H346.63V260H332.63V190.2H346.63V218.9H376.53V190.2H390.53ZM440.31 260L424.91 232.8H418.31V260H404.31V190.2H430.51C435.91 190.2 440.51 191.167 444.31 193.1C448.11 194.967 450.943 197.533 452.81 200.8C454.743 204 455.71 207.6 455.71 211.6C455.71 216.2 454.377 220.367 451.71 224.1C449.043 227.767 445.077 230.3 439.81 231.7L456.51 260H440.31ZM418.31 222.3H430.01C433.81 222.3 436.643 221.4 438.51 219.6C440.377 217.733 441.31 215.167 441.31 211.9C441.31 208.7 440.377 206.233 438.51 204.5C436.643 202.7 433.81 201.8 430.01 201.8H418.31V222.3Z" fill="#F7AC25"/>
    </g>
    <rect opacity="0.16" x="15" y="150" width="529" height="6" rx="3" fill="#F7AC25"/>
    <rect opacity="0.16" x="15" y="300" width="251" height="6" rx="3" fill="#4B93E7"/>
    <defs>
    <filter id="filter0_d_107_2351" x="0.600006" y="40.2" width="854.281" height="255.1" filterUnits="userSpaceOnUse" color-interpolation-filters="sRGB">
    <feFlood flood-opacity="0" result="BackgroundImageFix"/>
    <feColorMatrix in="SourceAlpha" type="matrix" values="0 0 0 0 0 0 0 0 0 0 0 0 0 0 0 0 0 0 127 0" result="hardAlpha"/>
    <feOffset dy="4"/>
    <feGaussianBlur stdDeviation="2"/>
    <feComposite in2="hardAlpha" operator="out"/>
    <feColorMatrix type="matrix" values="0 0 0 0 0 0 0 0 0 0 0 0 0 0 0 0 0 0 0.25 0"/>
    <feBlend mode="normal" in2="BackgroundImageFix" result="effect1_dropShadow_107_2351"/>
    <feBlend mode="normal" in="SourceGraphic" in2="effect1_dropShadow_107_2351" result="shape"/>
    </filter>
    </defs>
    </svg>
    